<?xml version="1.0" encoding="UTF-8" standalone="no"?>
<!DOCTYPE svg PUBLIC "-//W3C//DTD SVG 1.0//EN" "http://www.w3.org/TR/2001/PR-SVG-20010719/DTD/svg10.dtd">
<svg width="76cm" height="39cm" viewBox="-20 -183 1519 763" xmlns="http://www.w3.org/2000/svg" xmlns:xlink="http://www.w3.org/1999/xlink">
  <g id="Background">
    <g>
      <rect style="fill: #ffffff; fill-opacity: 1; stroke-opacity: 1; stroke-width: 2; stroke: #000000" x="-18.508" y="-181.042" width="1516.9" height="760.36" rx="0" ry="0"/>
      <text font-size="12.8" style="fill: #000000; fill-opacity: 1; stroke: none;text-anchor:middle;font-family:sans-serif;font-style:normal;font-weight:normal" x="739.94" y="203.019">
        <tspan x="739.94" y="203.019"></tspan>
      </text>
    </g>
    <g>
      <rect style="fill: #ffffff; fill-opacity: 1; stroke-opacity: 1; stroke-width: 2; stroke: #000000" x="1022.4" y="18" width="137" height="117.6" rx="0" ry="0"/>
      <text font-size="12.8" style="fill: #000000; fill-opacity: 1; stroke: none;text-anchor:middle;font-family:sans-serif;font-style:normal;font-weight:normal" x="1090.9" y="80.6812">
        <tspan x="1090.9" y="80.6812">UART Controller</tspan>
      </text>
    </g>
    <text font-size="12.8" style="fill: #000000; fill-opacity: 1; stroke: none;text-anchor:start;font-family:sans-serif;font-style:normal;font-weight:normal" x="954" y="37.6">
      <tspan x="954" y="37.6">cpu_reset</tspan>
    </text>
    <g>
      <line style="fill: none; stroke-opacity: 1; stroke-width: 2; stroke: #000000" x1="1165.85" y1="294.1" x2="561.85" y2="293.314"/>
      <polygon style="fill: #000000; fill-opacity: 1; stroke-opacity: 1; stroke-width: 2; stroke: #000000" fill-rule="evenodd" points="561.856,288.314 551.85,293.301 561.843,298.314 "/>
    </g>
    <g>
      <polyline style="fill: none; stroke-opacity: 1; stroke-width: 2; stroke: #000000" points="1022.4,76.8 520.35,76.8 520.35,195.6 "/>
      <polygon style="fill: #000000; fill-opacity: 1; stroke-opacity: 1; stroke-width: 2; stroke: #000000" fill-rule="evenodd" points="515.35,195.6 520.35,205.6 525.35,195.6 "/>
    </g>
    <text font-size="12.8" style="fill: #000000; fill-opacity: 1; stroke: none;text-anchor:start;font-family:sans-serif;font-style:normal;font-weight:normal" x="531" y="95">
      <tspan x="531" y="95">imem_uart_ctrl</tspan>
      <tspan x="531" y="111">imem_uart_wr_en</tspan>
      <tspan x="531" y="127">imem_uart_addr[5:0]</tspan>
    </text>
    <g>
      <line style="fill: none; stroke-opacity: 1; stroke-width: 2; stroke: #000000" x1="852.85" y1="466.3" x2="1009.7" y2="465.179"/>
      <polygon style="fill: #000000; fill-opacity: 1; stroke-opacity: 1; stroke-width: 2; stroke: #000000" fill-rule="evenodd" points="1009.74,470.179 1019.7,465.107 1009.66,460.179 "/>
    </g>
    <g>
      <rect style="fill: #ffffff; fill-opacity: 1; stroke-opacity: 1; stroke-width: 2; stroke: #000000" x="1428.35" y="288.6" width="41.8" height="38" rx="0" ry="0"/>
      <text font-size="12.8" style="fill: #000000; fill-opacity: 1; stroke: none;text-anchor:middle;font-family:sans-serif;font-style:normal;font-weight:normal" x="1449.25" y="311.481">
        <tspan x="1449.25" y="311.481">in2</tspan>
      </text>
    </g>
    <g>
      <line style="fill: none; stroke-opacity: 1; stroke-width: 2; stroke: #000000" x1="1428.35" y1="307.6" x2="1319.31" y2="308.735"/>
      <polygon style="fill: #000000; fill-opacity: 1; stroke-opacity: 1; stroke-width: 2; stroke: #000000" fill-rule="evenodd" points="1319.26,303.736 1309.31,308.84 1319.36,313.735 "/>
    </g>
    <g>
      <rect style="fill: #ffffff; fill-opacity: 1; stroke-opacity: 1; stroke-width: 2; stroke: #000000" x="1428.35" y="461.2" width="51.1" height="38" rx="0" ry="0"/>
      <text font-size="12.8" style="fill: #000000; fill-opacity: 1; stroke: none;text-anchor:middle;font-family:sans-serif;font-style:normal;font-weight:normal" x="1453.9" y="484.081">
        <tspan x="1453.9" y="484.081">out2</tspan>
      </text>
    </g>
    <g>
      <line style="fill: none; stroke-opacity: 1; stroke-width: 2; stroke: #000000" x1="1161.15" y1="479.85" x2="1417.35" y2="480.186"/>
      <polygon style="fill: #000000; fill-opacity: 1; stroke-opacity: 1; stroke-width: 2; stroke: #000000" fill-rule="evenodd" points="1417.34,485.186 1427.35,480.199 1417.35,475.186 "/>
    </g>
    <g>
      <rect style="fill: #ffffff; fill-opacity: 1; stroke-opacity: 1; stroke-width: 2; stroke: #000000" x="1428.35" y="-48.8" width="46.9063" height="38" rx="0" ry="0"/>
      <text font-size="12.8" style="fill: #000000; fill-opacity: 1; stroke: none;text-anchor:middle;font-family:sans-serif;font-style:normal;font-weight:normal" x="1451.8" y="-25.9187">
        <tspan x="1451.8" y="-25.9187">in7</tspan>
      </text>
    </g>
    <g>
      <polyline style="fill: none; stroke-opacity: 1; stroke-width: 2; stroke: #ff0000" points="1428.35,-29.8 1090.9,-29.8 1090.9,7 "/>
      <polygon style="fill: #ff0000; fill-opacity: 1; stroke-opacity: 1; stroke-width: 2; stroke: #ff0000" fill-rule="evenodd" points="1085.9,7 1090.9,17 1095.9,7 "/>
    </g>
    <text font-size="12.8" style="fill: #000000; fill-opacity: 1; stroke: none;text-anchor:start;font-family:sans-serif;font-style:normal;font-weight:normal" x="870" y="285.6">
      <tspan x="870" y="285.6">umem_wr_data[7:0]</tspan>
    </text>
    <text font-size="12.8" style="fill: #000000; fill-opacity: 1; stroke: none;text-anchor:start;font-family:sans-serif;font-style:normal;font-weight:normal" x="1063" y="397.6">
      <tspan x="1063" y="397.6">tx_req</tspan>
    </text>
    <g>
      <polyline style="fill: none; stroke-opacity: 1; stroke-width: 2; stroke: #000000" points="1238.08,264.6 1238.08,76.8 1170.4,76.8 "/>
      <polygon style="fill: #000000; fill-opacity: 1; stroke-opacity: 1; stroke-width: 2; stroke: #000000" fill-rule="evenodd" points="1170.4,71.8 1160.4,76.8 1170.4,81.8 "/>
    </g>
    <text font-size="12.8" style="fill: #000000; fill-opacity: 1; stroke: none;text-anchor:start;font-family:sans-serif;font-style:normal;font-weight:normal" x="1177.7" y="68.4812">
      <tspan x="1177.7" y="68.4812">rx_ready</tspan>
    </text>
    <g>
      <rect style="fill: #ffffff; fill-opacity: 1; stroke-opacity: 1; stroke-width: 2; stroke: #000000" x="1020.7" y="435.6" width="140.454" height="59" rx="0" ry="0"/>
      <text font-size="12.8" style="fill: #000000; fill-opacity: 1; stroke: none;text-anchor:middle;font-family:sans-serif;font-style:normal;font-weight:normal" x="1090.93" y="468.981">
        <tspan x="1090.93" y="468.981">uart_tx</tspan>
      </text>
    </g>
    <text font-size="12.8" style="fill: #000000; fill-opacity: 1; stroke: none;text-anchor:start;font-family:sans-serif;font-style:normal;font-weight:normal" x="868.7" y="458.482">
      <tspan x="868.7" y="458.482">umem_rd_data[7:0]</tspan>
    </text>
    <g>
      <line style="fill: none; stroke-opacity: 1; stroke-width: 2; stroke: #000000" x1="1056.65" y1="135.6" x2="1055.84" y2="424.6"/>
      <polygon style="fill: #000000; fill-opacity: 1; stroke-opacity: 1; stroke-width: 2; stroke: #000000" fill-rule="evenodd" points="1050.84,424.586 1055.82,434.6 1060.84,424.614 "/>
    </g>
    <text font-size="12.8" style="fill: #000000; fill-opacity: 1; stroke: none;text-anchor:start;font-family:sans-serif;font-style:normal;font-weight:normal" x="1135.95" y="398.482">
      <tspan x="1135.95" y="398.482">empty</tspan>
      <tspan x="1135.95" y="414.482">error</tspan>
    </text>
    <g>
      <polyline style="fill: none; stroke-opacity: 1; stroke-width: 2; stroke-dasharray: 20 8 4 8; stroke: #ff0000" points="1022.4,47.4 114.45,47.4 114.45,195.6 "/>
      <polygon style="fill: #ff0000; fill-opacity: 1; stroke-opacity: 1; stroke-width: 2; stroke: #ff0000" fill-rule="evenodd" points="109.45,195.6 114.45,205.6 119.45,195.6 "/>
    </g>
    <g>
      <polyline style="fill: none; stroke-opacity: 1; stroke-width: 2; stroke: #ff0000" points="1428.35,-29.8 1351,-29.8 1351,279.35 1319.31,279.35 "/>
      <polygon style="fill: #ff0000; fill-opacity: 1; stroke-opacity: 1; stroke-width: 2; stroke: #ff0000" fill-rule="evenodd" points="1319.31,274.35 1309.31,279.35 1319.31,284.35 "/>
    </g>
    <g>
      <polyline style="fill: none; stroke-opacity: 1; stroke-width: 2; stroke: #ff0000" points="1428.35,-29.8 1351,-29.8 1351,450.35 1172.15,450.35 "/>
      <polygon style="fill: #ff0000; fill-opacity: 1; stroke-opacity: 1; stroke-width: 2; stroke: #ff0000" fill-rule="evenodd" points="1172.15,445.35 1162.15,450.35 1172.15,455.35 "/>
    </g>
    <g>
      <line style="fill: none; stroke-opacity: 1; stroke-width: 2; stroke: #000000" x1="1126.04" y1="435.6" x2="1125.18" y2="146.6"/>
      <polygon style="fill: #000000; fill-opacity: 1; stroke-opacity: 1; stroke-width: 2; stroke: #000000" fill-rule="evenodd" points="1130.18,146.585 1125.15,136.6 1120.18,146.615 "/>
    </g>
    <g>
      <rect style="fill: #ffffff; fill-opacity: 1; stroke-opacity: 1; stroke-width: 2; stroke: #000000" x="1167.85" y="264.6" width="140.454" height="59" rx="0" ry="0"/>
      <text font-size="12.8" style="fill: #000000; fill-opacity: 1; stroke: none;text-anchor:middle;font-family:sans-serif;font-style:normal;font-weight:normal" x="1238.08" y="297.981">
        <tspan x="1238.08" y="297.981">uart_rx</tspan>
      </text>
    </g>
    <g>
      <polyline style="fill: none; stroke-opacity: 1; stroke-width: 2; stroke: #ff0000" points="1428.35,-29.8 459.35,-29.8 459.35,195.6 "/>
      <polygon style="fill: #ff0000; fill-opacity: 1; stroke-opacity: 1; stroke-width: 2; stroke: #ff0000" fill-rule="evenodd" points="454.35,195.6 459.35,205.6 464.35,195.6 "/>
    </g>
    <g>
      <polyline style="fill: none; stroke-opacity: 1; stroke-width: 2; stroke: #000000" points="1022.4,106.2 822.35,106.2 822.35,368.6 "/>
      <polygon style="fill: #000000; fill-opacity: 1; stroke-opacity: 1; stroke-width: 2; stroke: #000000" fill-rule="evenodd" points="817.35,368.6 822.35,378.6 827.35,368.6 "/>
    </g>
    <g>
      <polyline style="fill: none; stroke-opacity: 1; stroke-width: 2; stroke: #ff0000" points="1428.35,-29.8 761.35,-29.8 761.35,368.6 "/>
      <polygon style="fill: #ff0000; fill-opacity: 1; stroke-opacity: 1; stroke-width: 2; stroke: #ff0000" fill-rule="evenodd" points="756.35,368.6 761.35,378.6 766.35,368.6 "/>
    </g>
    <g>
      <rect style="fill: #ffffff; fill-opacity: 1; stroke-opacity: 1; stroke-width: 2; stroke: #000000" x="428.85" y="206.6" width="122" height="173.4" rx="0" ry="0"/>
      <text font-size="12.8" style="fill: #000000; fill-opacity: 1; stroke: none;text-anchor:middle;font-family:sans-serif;font-style:normal;font-weight:normal" x="489.85" y="265.181">
        <tspan x="489.85" y="265.181">Instruction</tspan>
        <tspan x="489.85" y="281.181">Memory</tspan>
        <tspan x="489.85" y="297.181"></tspan>
        <tspan x="489.85" y="313.181">64 bytes</tspan>
        <tspan x="489.85" y="329.181">(16 words)</tspan>
      </text>
    </g>
    <g>
      <line style="fill: none; stroke-opacity: 1; stroke-width: 2; stroke: #000000" x1="228.45" y1="249.7" x2="417.85" y2="249.936"/>
      <polygon style="fill: #000000; fill-opacity: 1; stroke-opacity: 1; stroke-width: 2; stroke: #000000" fill-rule="evenodd" points="417.844,254.936 427.85,249.949 417.856,244.936 "/>
    </g>
    <text font-size="12.8" style="fill: #000000; fill-opacity: 1; stroke: none;text-anchor:end;font-family:sans-serif;font-style:normal;font-weight:normal" x="413.35" y="226">
      <tspan x="413.35" y="226">imem_rd_en</tspan>
      <tspan x="413.35" y="242">imem_rd_addr[3:0]</tspan>
    </text>
    <text font-size="12.8" style="fill: #000000; fill-opacity: 1; stroke: none;text-anchor:end;font-family:sans-serif;font-style:normal;font-weight:normal" x="412.35" y="327">
      <tspan x="412.35" y="327">imem_rd_data[31:0]</tspan>
    </text>
    <g>
      <rect style="fill: #ffffff; fill-opacity: 1; stroke-opacity: 1; stroke-width: 2; stroke: #000000" x="730.85" y="379.6" width="122" height="173.4" rx="0" ry="0"/>
      <text font-size="12.8" style="fill: #000000; fill-opacity: 1; stroke: none;text-anchor:middle;font-family:sans-serif;font-style:normal;font-weight:normal" x="791.85" y="438.181">
        <tspan x="791.85" y="438.181">Data</tspan>
        <tspan x="791.85" y="454.181">Memory</tspan>
        <tspan x="791.85" y="470.181"></tspan>
        <tspan x="791.85" y="486.181">16 bytes</tspan>
        <tspan x="791.85" y="502.181">(4 words)</tspan>
      </text>
    </g>
    <text font-size="12.8" style="fill: #000000; fill-opacity: 1; stroke: none;text-anchor:end;font-family:sans-serif;font-style:normal;font-weight:normal" x="715.35" y="351">
      <tspan x="715.35" y="351">dmem_rd_en</tspan>
      <tspan x="715.35" y="367">dmem_wr_en</tspan>
      <tspan x="715.35" y="383">dmem_addr[1:0]</tspan>
      <tspan x="715.35" y="399">dmem_wr_byte_en[3:0]</tspan>
      <tspan x="715.35" y="415">dmem_wr_data[31:0]</tspan>
    </text>
    <text font-size="12.8" style="fill: #000000; fill-opacity: 1; stroke: none;text-anchor:end;font-family:sans-serif;font-style:normal;font-weight:normal" x="713.35" y="501">
      <tspan x="713.35" y="501">dmem_rd_data[31:0]</tspan>
    </text>
    <g>
      <line style="fill: none; stroke-opacity: 1; stroke-width: 2; stroke: #000000" x1="239.45" y1="335.941" x2="428.85" y2="336.65"/>
      <polygon style="fill: #000000; fill-opacity: 1; stroke-opacity: 1; stroke-width: 2; stroke: #000000" fill-rule="evenodd" points="239.469,330.941 229.45,335.904 239.431,340.941 "/>
    </g>
    <g>
      <rect style="fill: #ffffff; fill-opacity: 1; stroke-opacity: 1; stroke-width: 2; stroke: #000000" x="0.45" y="206.6" width="228" height="172.4" rx="0" ry="0"/>
      <text font-size="12.8" style="fill: #000000; fill-opacity: 1; stroke: none;text-anchor:middle;font-family:sans-serif;font-style:normal;font-weight:normal" x="114.45" y="256.681">
        <tspan x="114.45" y="256.681">RISC-V Core</tspan>
        <tspan x="114.45" y="272.681">Modified RV32I ISA</tspan>
        <tspan x="114.45" y="288.681"></tspan>
        <tspan x="114.45" y="304.681">16 Registers</tspan>
        <tspan x="114.45" y="320.681">No FENCE, ECALL, EBREAK</tspan>
        <tspan x="114.45" y="336.681">All Load/Store treated as LW/SW</tspan>
      </text>
    </g>
    <text font-size="12.8" style="fill: #000000; fill-opacity: 1; stroke: none;text-anchor:start;font-family:sans-serif;font-style:normal;font-weight:normal" x="831.944" y="124.481">
      <tspan x="831.944" y="124.481">dmem_uart_ctrl</tspan>
      <tspan x="831.944" y="140.481">dmem_uart_rd_en</tspan>
      <tspan x="831.944" y="156.481">dmem_uart_addr[3:0]</tspan>
    </text>
    <g>
      <polyline style="fill: none; stroke-opacity: 1; stroke-width: 2; stroke: #000000" points="171.45,379 171.45,422.95 719.85,422.95 "/>
      <polygon style="fill: #000000; fill-opacity: 1; stroke-opacity: 1; stroke-width: 2; stroke: #000000" fill-rule="evenodd" points="719.85,427.95 729.85,422.95 719.85,417.95 "/>
    </g>
    <g>
      <polyline style="fill: none; stroke-opacity: 1; stroke-width: 2; stroke: #000000" points="730.85,509.65 57.45,509.65 57.45,390 "/>
      <polygon style="fill: #000000; fill-opacity: 1; stroke-opacity: 1; stroke-width: 2; stroke: #000000" fill-rule="evenodd" points="62.45,390 57.45,380 52.45,390 "/>
    </g>
    <g>
      <polyline style="fill: none; stroke-opacity: 1; stroke-width: 2; stroke: #000000" points="1238.08,323.6 1238.08,530 1090.93,530 1090.93,505.6 "/>
      <polygon style="fill: #000000; fill-opacity: 1; stroke-opacity: 1; stroke-width: 2; stroke: #000000" fill-rule="evenodd" points="1095.93,505.6 1090.93,495.6 1085.93,505.6 "/>
    </g>
    <text font-size="12.8" style="fill: #000000; fill-opacity: 1; stroke: none;text-anchor:start;font-family:sans-serif;font-style:normal;font-weight:normal" x="1118" y="522">
      <tspan x="1118" y="522">cycles_per_bit</tspan>
    </text>
    <text font-size="12.8" style="fill: #000000; fill-opacity: 1; stroke: none;text-anchor:start;font-family:sans-serif;font-style:normal;font-weight:normal" x="1392.55" y="-37">
      <tspan x="1392.55" y="-37">rst</tspan>
    </text>
    <text font-size="12.8" style="fill: #000000; fill-opacity: 1; stroke: none;text-anchor:start;font-family:sans-serif;font-style:normal;font-weight:normal" x="1382.55" y="300">
      <tspan x="1382.55" y="300">rx_in</tspan>
    </text>
    <text font-size="12.8" style="fill: #000000; fill-opacity: 1; stroke: none;text-anchor:start;font-family:sans-serif;font-style:normal;font-weight:normal" x="1376.55" y="471">
      <tspan x="1376.55" y="471">tx_out</tspan>
    </text>
    <g>
      <rect style="fill: #ffffff; fill-opacity: 1; stroke-opacity: 1; stroke-width: 2; stroke: #000000" x="1428.35" y="-103.4" width="51.1" height="38" rx="0" ry="0"/>
      <text font-size="12.8" style="fill: #000000; fill-opacity: 1; stroke: none;text-anchor:middle;font-family:sans-serif;font-style:normal;font-weight:normal" x="1453.9" y="-80.5187">
        <tspan x="1453.9" y="-80.5187">out7</tspan>
      </text>
    </g>
    <g>
      <polyline style="fill: none; stroke-opacity: 1; stroke-width: 2; stroke: #ff0000" points="1428.35,-29.8 1350.55,-29.8 1350.55,-84.4 1417.35,-84.4 "/>
      <polygon style="fill: #ff0000; fill-opacity: 1; stroke-opacity: 1; stroke-width: 2; stroke: #ff0000" fill-rule="evenodd" points="1417.35,-79.4 1427.35,-84.4 1417.35,-89.4 "/>
    </g>
    <g>
      <rect style="fill: #ffffff; fill-opacity: 1; stroke-opacity: 1; stroke-width: 2; stroke: #000000" x="1428.35" y="-157.4" width="51.1" height="38" rx="0" ry="0"/>
      <text font-size="12.8" style="fill: #000000; fill-opacity: 1; stroke: none;text-anchor:middle;font-family:sans-serif;font-style:normal;font-weight:normal" x="1453.9" y="-134.519">
        <tspan x="1453.9" y="-134.519">out6</tspan>
      </text>
    </g>
    <g>
      <polyline style="fill: none; stroke-opacity: 1; stroke-width: 2; stroke-dasharray: 20 8 4 8; stroke: #ff0000" points="1022.4,47.4 1022.4,47 892.554,47 892.554,-138.4 1417.35,-138.4 "/>
      <polygon style="fill: #ff0000; fill-opacity: 1; stroke-opacity: 1; stroke-width: 2; stroke: #ff0000" fill-rule="evenodd" points="1417.35,-133.4 1427.35,-138.4 1417.35,-143.4 "/>
    </g>
    <g>
      <rect style="fill: #ffffff; fill-opacity: 1; stroke-opacity: 1; stroke-width: 2; stroke: #000000" x="1428.35" y="341.6" width="51.1" height="38" rx="0" ry="0"/>
      <text font-size="12.8" style="fill: #000000; fill-opacity: 1; stroke: none;text-anchor:middle;font-family:sans-serif;font-style:normal;font-weight:normal" x="1453.9" y="364.481">
        <tspan x="1453.9" y="364.481">out5</tspan>
      </text>
    </g>
    <g>
      <rect style="fill: #ffffff; fill-opacity: 1; stroke-opacity: 1; stroke-width: 2; stroke: #000000" x="1428.35" y="514.2" width="51.1" height="38" rx="0" ry="0"/>
      <text font-size="12.8" style="fill: #000000; fill-opacity: 1; stroke: none;text-anchor:middle;font-family:sans-serif;font-style:normal;font-weight:normal" x="1453.9" y="537.081">
        <tspan x="1453.9" y="537.081">out4</tspan>
      </text>
    </g>
    <g>
      <polyline style="fill: none; stroke-opacity: 1; stroke-width: 2; stroke: #000000" points="1428.35,307.6 1428.35,309 1379.55,309 1379.55,360.6 1417.35,360.6 "/>
      <polygon style="fill: #000000; fill-opacity: 1; stroke-opacity: 1; stroke-width: 2; stroke: #000000" fill-rule="evenodd" points="1417.35,365.6 1427.35,360.6 1417.35,355.6 "/>
    </g>
    <g>
      <polyline style="fill: none; stroke-opacity: 1; stroke-width: 2; stroke: #000000" points="1161.15,479.85 1380.55,479.85 1380.55,533.2 1417.35,533.2 "/>
      <polygon style="fill: #000000; fill-opacity: 1; stroke-opacity: 1; stroke-width: 2; stroke: #000000" fill-rule="evenodd" points="1417.35,538.2 1427.35,533.2 1417.35,528.2 "/>
    </g>
  </g>
</svg>
